<?xml version="1.0" standalone="no"?><!DOCTYPE svg PUBLIC "-//W3C//DTD SVG 1.1//EN" "http://www.w3.org/Graphics/SVG/1.1/DTD/svg11.dtd"><svg t="1527669413961" class="icon" style="" viewBox="0 0 1024 1024" version="1.1" xmlns="http://www.w3.org/2000/svg" p-id="9804" xmlns:xlink="http://www.w3.org/1999/xlink" width="32" height="32"><defs><style type="text/css"></style></defs><path d="M448.111 70.127H165.587l198.862 389.318h282.528L448.111 70.127z" fill="#FEE632" p-id="9805"></path><path d="M561.079 70.127L362.205 459.445h282.529L843.607 70.127H561.079z" fill="#FFFF9C" p-id="9806"></path><path d="M504.606 267.303c-189.769 0-343.6 153.826-343.6 343.599 0 189.765 153.826 343.571 343.6 343.571 189.746 0 343.572-153.805 343.572-343.571 0.001-189.769-153.825-343.599-343.572-343.599z m0 628.124c-157.146 0-284.553-127.376-284.553-284.524 0-157.158 127.407-284.549 284.553-284.549 157.118 0 284.521 127.391 284.521 284.549 0.002 157.148-127.402 284.524-284.521 284.524z" fill="#DDDDDB" p-id="9807"></path><path d="M504.606 326.354c-157.146 0-284.553 127.391-284.553 284.549 0 157.148 127.407 284.524 284.553 284.524 157.118 0 284.521-127.376 284.521-284.524 0.002-157.159-127.402-284.549-284.521-284.549z m-0.008 526.122c-133.465 0-241.593-108.145-241.593-241.573 0-133.438 108.128-241.602 241.593-241.602 133.438 0 241.569 108.163 241.569 241.602 0.002 133.428-108.132 241.573-241.569 241.573z" fill="#878787" p-id="9808"></path><path d="M504.598 369.3c-133.465 0-241.593 108.163-241.593 241.602 0 133.43 108.128 241.573 241.593 241.573 133.438 0 241.569-108.145 241.569-241.573 0.002-133.439-108.132-241.602-241.569-241.602z m92.756 343.248v38.771H402.115v-27.691c21.224-38.771 52.148-72.915 92.773-102.467 40.606-28.606 59.999-54.002 58.158-76.159 0-27.692-16.615-41.539-49.85-41.539-25.851 0.932-42.921 16.61-51.234 47.076l-44.308-19.387c17.524-47.081 51.23-70.614 101.083-70.614 57.224 2.764 87.688 30.001 91.385 81.69 4.612 36.936-18.93 72.004-70.618 105.234-32.321 24.014-55.387 45.697-69.229 65.077 57.225 0.009 102.913 0.009 137.079 0.009z" fill="#A3A3A3" p-id="9809"></path></svg>